<svg width="1920" height="910" viewBox="0 0 1920 910" fill="none" xmlns="http://www.w3.org/2000/svg">
<path d="M18.5 300.5L38 231.4C73.4 433.9 182.6 200 274 228.6C365.4 257.4 456.6 214.6 548 189.4C639.4 164 730.6 156 822.4 170C914 184 1006 220 1097.6 231.4C1189.4 242.6 1280.6 229.4 1372 210C1463.4 190.6 1554.6 165.4 1646 150C1737.4 134.6 1828.6 129.4 1874.4 126.6L1920 124V910H1874.4C1828.6 910 1737.4 910 1646 910C1554.6 910 1463.4 910 1372 910C1280.6 910 1189.4 910 1097.6 910C1006 910 914 910 822.4 910C730.6 910 639.4 910 548 910C456.6 910 365.4 910 274 910C182.6 910 91.4 910 45.6 910H0L18.5 300.5Z" fill="#F1AB28"/>
<path d="M0 224L45.6 209C91.4 194 182.6 164 274 155.4C365.4 146.6 456.6 159.4 548 206C639.4 252.6 730.6 333.4 822.4 326.6C914 320 1006 226 1097.6 194.6C1189.4 163.4 1280.6 194.6 1372 200.4C1463.4 206 1554.6 186 1646 183.6C1737.4 181.4 1828.6 196.6 1874.4 204.4L1920 212V910H1874.4C1828.6 910 1737.4 910 1646 910C1554.6 910 1463.4 910 1372 910C1280.6 910 1189.4 910 1097.6 910C1006 910 914 910 822.4 910C730.6 910 639.4 910 548 910C456.6 910 365.4 910 274 910C182.6 910 91.4 910 45.6 910H0V224Z" fill="#F5932E"/>
<path d="M0 500L45.6 467C91.4 434 182.6 368 274 359C365.4 350 456.6 398 548 426C639.4 454 730.6 462 822.4 450.4C914 438.6 1006 407.4 1097.6 399C1189.4 390.6 1280.6 405.4 1372 393.6C1463.4 382 1554.6 344 1646 326.4C1737.4 308.6 1828.6 311.4 1874.4 312.6L1920 314V910H1874.4C1828.6 910 1737.4 910 1646 910C1554.6 910 1463.4 910 1372 910C1280.6 910 1189.4 910 1097.6 910C1006 910 914 910 822.4 910C730.6 910 639.4 910 548 910C456.6 910 365.4 910 274 910C182.6 910 91.4 910 45.6 910H0V500Z" fill="#F57A39"/>
<path d="M0 512L45.6 513.6C91.4 515.4 182.6 518.6 274 507C365.4 495.4 456.6 468.6 548 463.4C639.4 458 730.6 474 822.4 496.6C914 519.4 1006 548.6 1097.6 541.6C1189.4 534.6 1280.6 491.4 1372 470C1463.4 448.6 1554.6 449.4 1646 441.4C1737.4 433.4 1828.6 416.6 1874.4 408.4L1920 400V910H1874.4C1828.6 910 1737.4 910 1646 910C1554.6 910 1463.4 910 1372 910C1280.6 910 1189.4 910 1097.6 910C1006 910 914 910 822.4 910C730.6 910 639.4 910 548 910C456.6 910 365.4 910 274 910C182.6 910 91.4 910 45.6 910H0V512Z" fill="#F06245"/>
<path d="M0 530L45.6 553C91.4 576 182.6 622 274 645.4C365.4 668.6 456.6 669.4 548 662.6C639.4 656 730.6 642 822.4 634.4C914 626.6 1006 625.4 1097.6 626.4C1189.4 627.4 1280.6 630.6 1372 618.4C1463.4 606 1554.6 578 1646 554.6C1737.4 531.4 1828.6 512.6 1874.4 503.4L1920 494V910H1874.4C1828.6 910 1737.4 910 1646 910C1554.6 910 1463.4 910 1372 910C1280.6 910 1189.4 910 1097.6 910C1006 910 914 910 822.4 910C730.6 910 639.4 910 548 910C456.6 910 365.4 910 274 910C182.6 910 91.4 910 45.6 910H0V530Z" fill="#E74B51"/>
<path d="M0 654L45.6 650.4C91.4 646.6 182.6 639.4 274 643.4C365.4 647.4 456.6 662.6 548 657.4C639.4 652 730.6 626 822.4 617.4C914 608.6 1006 617.4 1097.6 619C1189.4 620.6 1280.6 615.4 1372 632.4C1463.4 649.4 1554.6 688.6 1646 703C1737.4 717.4 1828.6 706.6 1874.4 701.4L1920 696V910H1874.4C1828.6 910 1737.4 910 1646 910C1554.6 910 1463.4 910 1372 910C1280.6 910 1189.4 910 1097.6 910C1006 910 914 910 822.4 910C730.6 910 639.4 910 548 910C456.6 910 365.4 910 274 910C182.6 910 91.4 910 45.6 910H0V654Z" fill="#D9355D"/>
<path d="M0 838L45.6 821C91.4 804 182.6 770 274 763.4C365.4 756.6 456.6 777.4 548 786C639.4 794.6 730.6 791.4 822.4 782.6C914 774 1006 760 1097.6 753.6C1189.4 747.4 1280.6 748.6 1372 754.6C1463.4 760.6 1554.6 771.4 1646 778.6C1737.4 786 1828.6 790 1874.4 792L1920 794V910H1874.4C1828.6 910 1737.4 910 1646 910C1554.6 910 1463.4 910 1372 910C1280.6 910 1189.4 910 1097.6 910C1006 910 914 910 822.4 910C730.6 910 639.4 910 548 910C456.6 910 365.4 910 274 910C182.6 910 91.4 910 45.6 910H0V838Z" fill="#C62368"/>
</svg>
